<?xml version="1.0" encoding="UTF-8" standalone="no"?>
<!DOCTYPE svg PUBLIC "-//W3C//DTD SVG 1.1//EN" "http://www.w3.org/Graphics/SVG/1.1/DTD/svg11.dtd">
<svg width="100%" height="100%" viewBox="0 0 3005 3005" version="1.1" xmlns="http://www.w3.org/2000/svg" xmlns:xlink="http://www.w3.org/1999/xlink" xml:space="preserve" xmlns:serif="http://www.serif.com/" style="fill-rule:evenodd;clip-rule:evenodd;stroke-linejoin:round;stroke-miterlimit:2;">
    <g transform="matrix(1.58378,0,0,1.58378,-877.206,-875.317)">
        <g>
            <g transform="matrix(0.902741,0,0,0.902741,148.187,102.59)">
                <path d="M1232.22,993.719L1772.22,993.72L1772.22,2010.72L1232.22,2010.72L1232.22,993.719Z" style="fill:white;fill-rule:nonzero;"/>
            </g>
            <g transform="matrix(0.902741,0,0,0.902741,148.187,102.59)">
                <path d="M1903.47,1738.86L1902.69,1755.12C1902.19,1798.7 1895.38,1841.4 1882.25,1883.22C1876.01,1909.62 1852.91,1944.59 1812.98,1988.12C1796.04,2007.58 1751.89,2045.06 1680.52,2100.57L1505.31,2171L1418.94,2140.36L1151.83,2019.47L1103.6,1820.49L1141.18,1687.45L1318.7,1698.99L1727.99,1694.12L1903.47,1738.86Z" style="fill:rgb(243,243,243);fill-rule:nonzero;"/>
            </g>
            <g transform="matrix(0.902741,0,0,0.902741,148.187,102.59)">
                <path d="M2250.67,1893.59L2284.88,1792.11L2288,1612.55L2213.57,1560.48L2153.39,1589.84L2132.8,1691.5L2104.2,1790.05L2103.41,1818.61L2250.67,1893.59Z" style="fill:rgb(243,243,243);fill-rule:nonzero;"/>
            </g>
            <g transform="matrix(0.902741,0,0,0.902741,148.187,102.59)">
                <path d="M2064.99,2281.6L2183.73,2348.05L2206.93,2431.58L2143.82,2538.93L2069.53,2564.11C1985.31,2550.68 1943.59,2544.52 1944.38,2545.63L1909.21,2536.96L1838.72,2573.32L1750.26,2583.67L1629.59,2560.47L1501.25,2498.41L1453.4,2533.79L1361.19,2565.15L1297.06,2579.61L1219.7,2580.51L1143.16,2567.73L1090.85,2541.86L974.066,2566.54L867.051,2533.25L804.344,2482.98L810.93,2387.64L858.977,2333.53L936.914,2277.56L895.969,2118.7L2064.99,2281.6Z" style="fill:rgb(243,243,243);fill-rule:nonzero;"/>
            </g>
            <g transform="matrix(0.902741,0,0,0.902741,148.187,102.59)">
                <path d="M2146.79,1388.94L2265.22,1375.57C2338.09,1319.15 2369.62,1270.87 2359.82,1230.71C2352.27,1198.71 2323.57,1149.09 2273.72,1081.85L2167.35,815.324L2092.57,684.332L2061.45,651.867C2037.23,627.879 2001.93,609.973 1955.54,598.148C1927.77,591.207 1871.98,586.734 1788.18,584.727C1677.76,549.051 1599.06,527.391 1552.08,519.742C1497.77,510.789 1446.06,509.016 1396.95,514.422C1351.14,519.949 1277.53,546.336 1176.09,593.578C1090.96,603.965 1034.2,614.242 1005.8,624.414C974.129,632.875 942.895,652.512 912.098,683.32C894.93,703.168 880.641,725.559 869.219,750.5L753.609,1033.88C688.539,1131.18 647.484,1197.29 630.449,1232.21C626.383,1245.87 625.035,1254.25 626.418,1257.38L679.414,1331.25C686.582,1344.37 712.926,1359.45 758.441,1376.5C786.711,1385.18 820.738,1391.14 860.52,1394.39L888.582,1269.31C933.09,1255.86 974.484,1249.49 1012.77,1250.2C1077.91,1257.94 1134.52,1271.04 1182.59,1289.52C1208.77,1288.99 1230.78,1286.69 1248.63,1282.62C1271.43,1276.38 1291.18,1267.83 1307.89,1256.97L1446.5,1152.96C1468.23,1141.41 1486.5,1135.93 1501.33,1136.54C1516.04,1135.62 1538.86,1142.93 1569.77,1158.45L1764.67,1280.89C1868.84,1255.43 1933.81,1242.94 1959.54,1243.41C2006.27,1242.22 2048.01,1248.41 2084.75,1261.98L2115.12,1274.3L2146.79,1388.94Z" style="fill:rgb(255,156,54);fill-rule:nonzero;"/>
            </g>
            <g transform="matrix(0.902741,0,0,0.902741,148.187,102.59)">
                <path d="M1871.9,1739.71L1872.02,1747.81C1874.5,1794.29 1870.18,1833.24 1859.07,1864.66L1827.81,1953.62C1826.89,1957.56 1818.97,1968.32 1804.02,1985.91C1773.18,2022.86 1731.34,2059.51 1678.5,2095.86C1605.87,2132.09 1550.16,2154.89 1511.39,2164.24L1292.85,2077.29L1176.83,1947.01L1147.39,1889.47C1130.54,1816.19 1126.52,1760.02 1135.32,1720.96L1059.13,1692.36L1003.59,1938.77C923.371,2006.95 885.562,2074.63 890.176,2141.81C892.879,2204.78 915.82,2256.25 959.004,2296.21C976.258,2309.3 1003.45,2316.66 1040.57,2318.29C1060.22,2319.8 1090.04,2316.64 1130.02,2308.79C1155.62,2338.77 1192.51,2362.05 1240.66,2378.63C1255.17,2380.5 1268.29,2380.73 1280,2379.3C1313.75,2373.51 1339.02,2367.6 1355.83,2361.56L1408.27,2355.03C1440.15,2352.3 1469.71,2351.22 1496.94,2351.79C1542.47,2355.1 1612.97,2364.66 1708.43,2380.48C1729.81,2382.89 1749.87,2383.47 1768.6,2382.25C1782.81,2380.95 1796.19,2377.55 1808.74,2372.04C1829.11,2360.84 1850.42,2346.64 1872.68,2329.43L1894.07,2320.43C1901.59,2318.96 1908.8,2318.41 1915.7,2318.78C1946.91,2323 1968.57,2325.25 1980.69,2325.53C2001.58,2323.61 2014.57,2321.31 2019.66,2318.64C2065.02,2291.63 2094.09,2258.07 2106.86,2217.98C2121.1,2152.95 2120.84,2094.07 2106.1,2041.34C2146.29,2011.44 2179.19,1983.29 2204.8,1956.86C2244.59,1911.82 2265.2,1881.51 2266.61,1865.93C2201.41,1853.7 2151.23,1828.95 2116.06,1791.69L2010.85,1923.23L1974.02,1719.6L1871.9,1739.71Z" style="fill:rgb(255,156,54);fill-rule:nonzero;"/>
            </g>
            <g transform="matrix(0.902741,0,0,0.902741,155.187,95.5895)">
                <path d="M2112.98,1275.6L2117.57,1282.53C2146.29,1322.33 2159.2,1369.23 2156.28,1423.23C2152.52,1493.4 2134.02,1549.22 2100.8,1590.72C2082.04,1618.04 2038.33,1655.64 1969.65,1703.51L1721.62,1771.29L1403.71,1791.61C1216.96,1741.32 1098.5,1702.44 1048.32,1674.98C997.492,1653.88 954.902,1618.69 920.555,1569.4C902.801,1541.76 888.008,1501.07 876.172,1447.33L889.793,1273.57L923.668,1263.18C940.773,1257.83 965,1255.53 996.336,1256.29L1031.65,1259.73C1109.81,1272.74 1155.74,1279.64 1169.44,1280.42C1197.75,1282.79 1220.59,1281.87 1237.94,1277.67C1262.07,1272.16 1287.31,1261.69 1313.64,1246.29C1343.04,1230.34 1397.44,1196.73 1476.86,1145.46L1757.29,1270.44L1975.45,1254.07L2112.98,1275.6Z" style="fill:rgb(243,243,243);fill-rule:nonzero;"/>
            </g>
            <g transform="matrix(0.902741,0,0,0.902741,148.187,102.59)">
                <path d="M1407.36,1593.89L1409.72,1591.02C1420.82,1576.4 1433.92,1565.02 1449.03,1556.88C1467.71,1547.42 1485.09,1543.16 1501.15,1544.07C1515.79,1545.17 1528.95,1550.08 1540.64,1558.79C1553.58,1568.67 1566.93,1584.06 1580.69,1604.94L1545.38,1630.98L1480.83,1637.4L1407.36,1593.89Z" style="fill:rgb(225,83,83);fill-rule:nonzero;"/>
            </g>
            <g transform="matrix(0.902741,0,0,0.902741,148.187,102.59)">
                <path d="M2027.88,866.82L2024.07,854.875C2004.55,794.141 1985.54,752.297 1967.03,729.352C1954.09,706.672 1910.96,665.859 1837.63,606.914L1763.26,575.363L1569.25,517.656C1544.12,514.957 1519.14,513.766 1494.32,514.074L1457.2,515.672C1432.54,517.488 1408.04,520.812 1383.69,525.641C1334.99,535.297 1286.93,550.973 1239.5,572.672C1195.64,593.176 1161.71,614.305 1137.71,636.062C1093.25,680.395 1059.8,721.648 1037.35,759.824C1149.27,662.949 1228.97,607.305 1276.46,592.883C1358.19,561.359 1453.58,550.609 1562.65,560.633C1582.85,563.027 1602.76,566.457 1622.38,570.926C1642.01,575.395 1661.34,580.902 1680.39,587.445L1708.75,598.035C1741.08,609.805 1782.64,632.508 1833.44,666.145C1874.92,694.098 1915.95,728.566 1956.52,769.547L1971.64,785.305L2027.88,866.82Z" style="fill:rgb(255,244,232);fill-rule:nonzero;"/>
            </g>
            <g transform="matrix(0.902741,0,0,0.902741,148.187,102.59)">
                <path d="M1180.27,595.828L991.648,624.59L881.562,714.309C853.406,781.262 796.062,910.414 709.531,1101.76C745.793,1071.61 771.602,1044.23 786.961,1019.6C791.195,1013.8 798.117,1000.25 807.73,978.965C843.648,882.062 864.984,828.938 871.738,819.59C896.719,771.648 917.852,738.754 935.141,720.914C959.719,694.035 994.086,669.57 1038.24,647.52L1180.27,595.828Z" style="fill:rgb(255,244,232);fill-rule:nonzero;"/>
            </g>
            <g transform="matrix(0.902741,0,0,0.902741,148.187,102.59)">
                <path d="M1920.84,605.559L1928.54,604.844C1964.88,599.105 1998.08,607.523 2028.12,630.102L2072.24,666.621L2151.51,779.887L2251.52,1049.23L2299.59,1125.2C2331.11,1157.98 2350.76,1182.41 2358.54,1198.49C2368.61,1215.62 2368.49,1239.16 2358.19,1269.11C2300.7,1194.87 2260.56,1134.6 2237.77,1088.31C2226.77,1067.73 2213.12,1038.35 2196.82,1000.18C2146.63,873.051 2117.83,801.281 2110.43,784.867C2103.62,767.797 2091.22,744.215 2073.24,714.117C2060.55,693.758 2043.47,675.297 2021.99,658.738C2011.25,650.461 1999.41,642.656 1986.47,635.328C1981.38,631.07 1959.5,621.148 1920.84,605.559Z" style="fill:rgb(255,244,232);fill-rule:nonzero;"/>
            </g>
            <g transform="matrix(0.902741,0,0,0.902741,148.187,102.59)">
                <path d="M1082.91,1713.1L1077.98,1729.35C1059.06,1793.61 1048.66,1834.39 1046.78,1851.7C1042.1,1878.36 1040.32,1900.24 1041.46,1917.35C1042.62,1943.91 1044.22,1961.06 1046.27,1968.79C1048.48,1981.73 1051.44,1995.68 1055.16,2010.64C1062.61,2040.56 1073.09,2074.5 1086.61,2112.48C1111.79,2175.75 1130,2216.55 1141.22,2234.89C1154.82,2260.96 1171.06,2285.83 1189.93,2309.5C1209.11,2333.95 1247.86,2353.79 1306.16,2369.03L1170.16,2344.38L1119.29,2284.7L1061.96,2147.86L1035.77,2065.49L1001.77,1942.23L1002.87,1864.96L1032.32,1746.94L1082.91,1713.1Z" style="fill:rgb(255,244,232);fill-rule:nonzero;"/>
            </g>
            <g transform="matrix(0.902741,0,0,0.902741,148.187,102.59)">
                <path d="M950.879,1993.84L949.566,1999.53C945.551,2017.16 941.578,2033 937.641,2047.06C935.398,2054.97 931.098,2068.22 924.738,2086.8C922.359,2094.81 920.91,2100.05 920.391,2102.53C917.004,2117 915.91,2132.43 917.121,2148.84C917.551,2154.5 918.172,2160.12 918.98,2165.72C919.793,2171.31 920.793,2176.87 921.988,2182.4L923.918,2190.67C926.684,2201.66 930.211,2212.53 934.5,2223.27C940.305,2238.88 953.117,2261.85 972.938,2292.18L922.652,2270.79L897.863,2205.56L895.316,2137.3L898.234,2075.39L917.551,2033.96L950.879,1993.84Z" style="fill:rgb(255,244,232);fill-rule:nonzero;"/>
            </g>
            <g transform="matrix(0.902741,0,0,0.902741,148.187,102.59)">
                <path d="M1927.92,1731.4L1937.14,1755.64C1953.29,1797.19 1963.65,1832.97 1968.22,1862.97C1970.02,1875.15 1971.02,1888.12 1971.25,1901.9C1971.73,1912.71 1970.93,1930.24 1968.85,1954.48C1966.99,1976.78 1961.44,2007.47 1952.21,2046.54C1948.35,2061.95 1944.03,2077.7 1939.25,2093.8C1916.71,2166.47 1904.04,2208.14 1901.23,2218.81C1892.77,2251.34 1886.41,2278.53 1882.15,2300.38L1929.18,2213.61L1956.4,2135.27L1993.27,2000.69L2007.68,1920.18C1993.57,1838.54 1981.45,1769.59 1971.31,1713.32L1927.92,1731.4Z" style="fill:rgb(255,244,232);fill-rule:nonzero;"/>
            </g>
            <g transform="matrix(0.902741,0,0,0.902741,148.187,102.59)">
                <path d="M2013.02,2313.5L2017.93,2307.39C2025.79,2298.02 2035.15,2285.56 2046.01,2270.01C2050.64,2263.43 2055.84,2254.55 2061.6,2243.37C2071.85,2221.55 2078.09,2200.33 2080.32,2179.7C2083.32,2156.35 2083.16,2130.58 2079.83,2102.38C2077.94,2085.14 2071.49,2046.33 2060.47,1985.94L2099.84,2039.47L2115.78,2124.86L2105.53,2207.87L2077.02,2263.5L2013.02,2313.5Z" style="fill:rgb(255,244,232);fill-rule:nonzero;"/>
            </g>
            <g transform="matrix(0.902741,0,0,0.902741,148.187,102.59)">
                <path d="M2140.25,1470.9L2136.22,1479.11C2112.22,1529.23 2091.91,1560.64 2075.29,1573.35C2061.3,1587.45 2016.42,1612.25 1940.67,1647.73C1789.57,1702.19 1645.2,1729.3 1507.57,1729.07C1442.27,1728.32 1375.94,1720.59 1308.61,1705.9C1241.54,1691.15 1179.54,1672.15 1122.59,1648.91C1006.77,1601.62 921.129,1542.33 865.676,1471.04L927.223,1587.6L978.164,1640.98L1137,1723.47L1238.88,1757.69L1427.63,1795.14L1541.35,1793.16L1741.83,1781.81L1979.18,1707.3L2062.22,1649.74L2123.12,1566.5L2140.25,1470.9Z" style="fill:rgb(193,193,193);fill-rule:nonzero;"/>
            </g>
            <g transform="matrix(0.902741,0,0,0.902741,148.187,102.59)">
                <path d="M1805.96,1952.29L1800.06,1955.25C1778.39,1965.98 1760.86,1975.75 1747.47,1984.57C1740.57,1988.77 1724.71,2000.68 1699.89,2020.29L1676.94,2036.23C1655.08,2049.63 1638.18,2058.86 1626.25,2063.93C1602.81,2075.09 1577.01,2084.1 1548.85,2090.96C1531.83,2095.36 1511.62,2097.61 1488.23,2097.71C1453.04,2096.16 1418,2085.97 1383.09,2067.15L1246.93,1989.22C1232.5,1980.31 1211.54,1964.51 1184.04,1941.84C1195.67,1974.45 1206.39,1997.15 1216.2,2009.93C1225.99,2025.25 1245.04,2043.34 1273.35,2064.19L1313.82,2092.17L1494.66,2172.64L1611.75,2131.82L1699.29,2078.94L1805.96,1952.29Z" style="fill:rgb(193,193,193);fill-rule:nonzero;"/>
            </g>
            <g transform="matrix(0.902741,0,0,0.902741,148.187,102.59)">
                <path d="M2201.3,2401.05L2190.63,2415.5C2167.36,2447.29 2149.23,2469.2 2136.25,2481.22C2121.3,2494.29 2106.9,2501.3 2093.03,2502.25C2084.44,2503.47 2075.51,2504.16 2066.23,2504.29L1998.75,2504.21C1988.46,2504.36 1980.06,2504.78 1973.57,2505.49C1954.25,2507.68 1937.38,2512.64 1922.97,2520.37L1798.41,2524.44C1759.54,2525.27 1725.58,2525.18 1696.54,2524.15C1656,2522.77 1622.79,2519.52 1596.9,2514.38C1574.29,2510.25 1546.02,2500.84 1512.07,2486.15L1486.27,2482.41C1400.69,2508.43 1336.61,2526.53 1294.04,2536.71C1260.85,2544.98 1234.23,2548.46 1214.17,2547.15C1199.54,2546.06 1185.79,2541.9 1172.9,2534.66C1160.29,2528.42 1143.75,2515.45 1123.31,2495.74C1093.63,2467.59 1077.23,2437.72 1074.1,2406.13L1045.52,2469.05L1074.06,2512.47C1021.56,2518.21 984.277,2519.5 962.207,2516.31C926.793,2511.95 898.398,2503.27 877.016,2490.28C824.938,2460.84 830.973,2401.05 895.117,2310.9L847.879,2323.71L803.676,2412.41L821.148,2497.1L881.773,2536.91L998.273,2564.18C1033.7,2548.48 1064.8,2542.21 1091.57,2545.35C1117.31,2546.42 1166.15,2558.78 1238.1,2582.45C1298.53,2576.6 1343.49,2569.03 1373,2559.77C1402.63,2551.63 1446.37,2533.09 1504.21,2504.14L1678.76,2580.83L1840.61,2571.65L1905.59,2544.77L2037.22,2560.75L2126.21,2558.36L2199.62,2468.83L2201.3,2401.05Z" style="fill:rgb(193,193,193);fill-rule:nonzero;"/>
            </g>
            <g transform="matrix(0.902741,0,0,0.902741,148.187,102.59)">
                <path d="M2210.91,1852.9L2270,1859.6C2282.53,1805.27 2290.86,1763.74 2294.98,1735.03C2298.57,1710.23 2299.72,1689.33 2298.43,1672.32C2298.41,1669 2297.52,1661.36 2295.77,1649.4C2294.81,1643.35 2292.53,1632.66 2288.94,1617.33C2288.25,1614.48 2287.34,1607.49 2286.21,1596.34C2285.45,1592.76 2284.84,1590.68 2284.39,1590.09C2282.25,1583.75 2269.87,1573.91 2247.25,1560.58C2245.63,1600.15 2242.03,1650.93 2236.46,1712.93L2210.91,1852.9Z" style="fill:rgb(193,193,193);fill-rule:nonzero;"/>
            </g>
            <g transform="matrix(0.902741,0,0,0.902741,148.187,102.59)">
                <path d="M1719.5,1452.11L1713.85,1453.86C1693.12,1460.47 1676.26,1464.38 1663.28,1465.58C1652.01,1466.78 1640.9,1466.11 1629.94,1463.55C1593.69,1453.81 1563.67,1432.85 1539.9,1400.69C1528.77,1408.76 1520.48,1414.2 1515.04,1417.02C1509.7,1419.6 1506.61,1420.9 1505.77,1420.91C1503.85,1421.46 1502.05,1421.74 1500.36,1421.75C1498.66,1421.75 1497.09,1421.47 1495.67,1420.93C1494.84,1420.92 1492.9,1419.63 1489.85,1417.06C1486.91,1414.27 1483.44,1408.86 1479.47,1400.84C1460.3,1424.99 1446.26,1440.64 1437.37,1447.8C1430.25,1454.85 1419.43,1461.37 1404.93,1467.35C1392.19,1471.98 1377.5,1473.98 1360.85,1473.36C1343.19,1472.62 1320,1469.27 1291.28,1463.32L1307.42,1484.94L1387.73,1513.7L1449.22,1499.61L1477.89,1471.89L1522.71,1437.56L1558.4,1487.04L1658.15,1514.42L1719.5,1452.11Z" style="fill:rgb(193,193,193);fill-rule:nonzero;"/>
            </g>
            <g transform="matrix(0.902741,0,0,0.902741,148.187,102.59)">
                <path d="M2209.36,1854.15L2207.12,1858.49C2196.45,1880.24 2184.82,1898.89 2172.24,1914.44C2161.47,1927.11 2152.2,1936.73 2144.41,1943.31L2130.34,1955.02L2101.18,1976.98C2094.25,1982.87 2090.43,1986.39 2089.73,1987.55C2083.23,1994.52 2080.8,2001.55 2082.45,2008.62C2084.23,2016.88 2091.5,2027.59 2104.26,2040.73L2177.3,1997.36L2223.75,1950.42L2261.29,1873.38L2209.36,1854.15Z" style="fill:rgb(218,127,36);fill-rule:nonzero;"/>
            </g>
            <g transform="matrix(0.902741,0,0,0.902741,148.187,102.59)">
                <path d="M1699.87,2092.78L1693.91,2101.43C1676.03,2127.39 1660.52,2147.13 1647.38,2160.64C1634.27,2174.93 1616.16,2190.89 1593.07,2208.51C1588.19,2212.81 1583.61,2217.86 1579.32,2223.67C1575.06,2229.55 1571.17,2236.62 1567.68,2244.91L1547.06,2297.55C1543.32,2305.8 1539.09,2312.8 1534.36,2318.56C1527.6,2328.02 1513.93,2337.77 1493.36,2347.82C1483.84,2339.92 1477.37,2332.33 1473.94,2325.05C1471.06,2319.09 1469.38,2315.23 1468.9,2313.46C1459.58,2282.77 1453.81,2265.38 1451.59,2261.28C1447.14,2250.9 1441.63,2241.8 1435.04,2233.97C1429.88,2227.08 1420.94,2219.34 1408.23,2210.76C1405.82,2208.72 1390.17,2200.45 1361.29,2185.94C1353.5,2181.34 1348.89,2178.45 1347.47,2177.26C1340,2172.34 1330.03,2163.61 1317.56,2151.04C1292.21,2124.14 1272,2099.29 1256.93,2076.5C1246.2,2059.3 1239.24,2042.51 1236.07,2026.11L1313.44,2089.28L1432.67,2154.85L1505.56,2165.01L1633.24,2129.12L1699.87,2092.78Z" style="fill:rgb(218,127,36);fill-rule:nonzero;"/>
            </g>
            <g transform="matrix(0.902741,0,0,0.902741,148.187,102.59)">
                <path d="M936.965,929.117L886.707,1081.31C874.281,1156.16 862.059,1209.33 850.035,1240.81C836.641,1275.08 821.812,1296.23 805.555,1304.25C783.766,1317.04 753.723,1316.79 715.43,1303.47C687.25,1293.38 661.398,1272.15 637.875,1239.77C636.77,1266.95 640.035,1287.22 647.676,1300.57C653.852,1313.96 671.309,1333.81 700.047,1360.11L854.941,1391.88L934.617,1034.43L936.965,929.117Z" style="fill:rgb(218,127,36);fill-rule:nonzero;"/>
            </g>
            <g transform="matrix(0.902741,0,0,0.902741,148.187,102.59)">
                <path d="M2040.39,882.773L2078.09,981.707C2102.95,1084.48 2122.68,1158.11 2137.26,1202.6C2152.13,1245.38 2166.74,1273.25 2181.09,1286.19C2194.02,1301.27 2214.03,1309.49 2241.13,1310.86C2266.59,1311.64 2303.82,1304.62 2352.82,1289.8L2261.29,1374.67L2154.88,1392.61C2132.76,1313.86 2099.64,1189.59 2055.53,1019.79L2040.39,882.773Z" style="fill:rgb(218,127,36);fill-rule:nonzero;"/>
            </g>
            <g transform="matrix(0.902741,0,0,0.902741,148.187,102.59)">
                <path d="M1999.4,2033.47L1995.41,2053.47C1987.04,2094.12 1980.43,2131.84 1975.59,2166.64C1972.54,2194 1971.22,2209.57 1971.62,2213.35C1971.39,2222.66 1971.69,2231.07 1972.54,2238.6C1973.41,2246.06 1974.83,2252.63 1976.79,2258.31L1980.05,2266.28C1982.47,2271.18 1985.28,2275.44 1988.48,2279.04C1996.29,2288.38 2010.25,2296.43 2030.34,2303.22L1971.64,2327.05C1965.83,2328.51 1961.61,2329.34 1958.99,2329.53C1951.14,2331.68 1926.36,2328.54 1884.66,2320.12L1999.4,2033.47Z" style="fill:rgb(218,127,36);fill-rule:nonzero;"/>
            </g>
            <g transform="matrix(0.902741,0,0,0.902741,148.187,102.59)">
                <path d="M1036.81,2059.17L1035.5,2065.32C1030.32,2087.52 1028.99,2108.45 1031.51,2128.1C1032.19,2133.68 1033.22,2139.59 1034.59,2145.82L1036.93,2155.44L1051.93,2207.3C1053.84,2214.25 1055.45,2221 1056.75,2227.52C1059.55,2240.74 1059.94,2252.13 1057.94,2261.7C1056.79,2266.35 1054.9,2270.44 1052.28,2273.95L1047.91,2278.88C1044.66,2281.91 1040.89,2284.52 1036.58,2286.72C1026.08,2292.43 1007.29,2297.23 980.215,2301.13C1031.37,2313.11 1064.27,2319.15 1078.91,2319.24C1097.49,2319.76 1111.43,2315.57 1120.74,2306.66L1036.81,2059.17Z" style="fill:rgb(218,127,36);fill-rule:nonzero;"/>
            </g>
            <g transform="matrix(0.902741,0,0,0.902741,148.187,102.59)">
                <path d="M1748.16,1758.75L1748.17,1758.75L1748.66,1758.64L1748.66,1758.64C1879.09,1728.68 2003.36,1699.56 2068.57,1629.17C2133.14,1559.47 2141.51,1446.17 2127.24,1358.29C2120.51,1316.85 2108.85,1281.77 2096.22,1243.88C2082.4,1202.39 2067.55,1157.87 2057.94,1099.75C2054.47,1078.73 2051.68,1055.98 2048.8,1032.4C2045.59,1006.18 2042.24,978.809 2037.63,950.902C2024.47,871.309 2001.22,788.754 1943.47,720.422C1846.42,605.613 1649.75,528.277 1484.63,527.32C1483.6,527.316 1482.56,527.312 1481.54,527.312C1319,527.312 1187.81,601.516 1104.12,680.543C1020.38,759.629 984.66,843.176 963.422,931.215C952.672,975.766 945.66,1021.34 938.121,1070.39C930.707,1118.63 922.805,1170.07 910.359,1226.21C907.629,1238.51 904.688,1251.04 901.727,1263.62C898.68,1276.58 895.613,1289.61 892.699,1302.75C872.242,1395.04 860.668,1487.42 916.578,1564.12C989.891,1664.69 1181.38,1742.33 1341.43,1771.06C1397.55,1781.14 1449.31,1785.09 1498.27,1785.09C1587.64,1785.09 1667.76,1771.95 1748.93,1758.61L1748.16,1758.75ZM1753.67,1782.73C1753.42,1782.79 1753.17,1782.83 1752.91,1782.88C1671.94,1796.19 1589.94,1809.69 1498.27,1809.69C1447.95,1809.69 1394.73,1805.62 1337.08,1795.27C1175.89,1766.33 975.965,1687.34 896.703,1578.61C833.711,1492.2 848.277,1389.5 868.688,1297.43C871.641,1284.11 874.742,1270.93 877.785,1257.99C880.75,1245.38 883.66,1233 886.348,1220.88C898.594,1165.64 906.387,1114.95 913.812,1066.65C921.324,1017.79 928.477,971.18 939.512,925.445C961.527,834.184 999.102,745.891 1087.23,662.664C1174.35,580.398 1311.32,502.719 1481.54,502.719C1482.61,502.719 1483.7,502.719 1484.77,502.727C1655.33,503.711 1859.54,583.039 1962.25,704.547C2024.27,777.926 2048.48,865.73 2061.89,946.891C2066.61,975.383 2070.02,1003.26 2073.22,1029.41C2076.11,1053.11 2078.83,1075.32 2082.21,1095.74C2091.47,1151.76 2105.74,1194.65 2119.55,1236.1C2132.13,1273.84 2144.43,1310.69 2151.52,1354.34C2166.21,1444.84 2158.95,1567.8 2086.61,1645.89C2015.08,1723.09 1881.61,1753.34 1754.16,1782.61L1753.67,1782.73Z" style="fill-rule:nonzero;"/>
            </g>
            <g transform="matrix(0.902741,0,0,0.902741,148.187,102.59)">
                <path d="M1796.84,584.926L1796.84,584.93L1785.29,572.652C1897.52,579.445 2016.61,586.039 2096.52,674.996C2150.1,734.648 2185.18,830.719 2217.06,917.516C2232.23,958.82 2246.72,998.223 2262.22,1031.93C2285.01,1081.48 2310.16,1118.99 2331.23,1150.41C2345.78,1172.11 2358.93,1191.65 2367.36,1209.96C2372.49,1221.12 2376.13,1232.34 2377.22,1243.88C2382.69,1301.37 2324.81,1351.18 2279.51,1375.82C2231.65,1401.86 2189.29,1404.99 2149.3,1408.04C2142.53,1408.56 2136.62,1403.49 2136.1,1396.72C2135.59,1389.94 2140.66,1384.04 2147.43,1383.52C2187.38,1380.47 2224.96,1377.5 2267.76,1354.21C2313.11,1329.54 2356.6,1286.83 2352.74,1246.2C2351.98,1238.27 2349.41,1229.8 2345.01,1220.24C2337.59,1204.11 2325.72,1186.35 2310.81,1164.11C2289.7,1132.65 2263.57,1093.71 2239.88,1042.21C2223.88,1007.44 2209.05,967.059 2193.98,925.996C2161.52,837.633 2127.95,746.801 2078.22,691.43C2006.22,611.273 1898.44,604.141 1783.81,597.203C1777.31,596.809 1772.25,591.43 1772.25,584.93L1772.25,584.926C1772.25,578.137 1777.75,572.629 1784.55,572.629C1791.34,572.629 1796.84,578.137 1796.84,584.926Z" style="fill-rule:nonzero;"/>
            </g>
            <g transform="matrix(0.902741,0,0,0.902741,148.187,102.59)">
                <path d="M1224.16,586.531C1224.16,593.035 1219.1,598.414 1212.61,598.809C1097.97,605.742 990.199,612.875 918.195,693.035C868.457,748.402 834.891,839.238 802.438,927.602C787.355,968.664 772.531,1009.05 756.535,1043.82C732.844,1095.31 706.707,1134.26 685.605,1165.72C670.691,1187.96 658.824,1205.71 651.402,1221.84C647.004,1231.4 644.426,1239.87 643.672,1247.81C639.809,1288.43 683.301,1331.15 728.656,1355.82C771.453,1379.1 809.035,1382.07 848.984,1385.12C855.754,1385.64 860.824,1391.55 860.309,1398.32C859.793,1405.09 853.883,1410.16 847.109,1409.65C807.121,1406.59 764.762,1403.46 716.902,1377.43C671.602,1352.78 613.719,1302.98 619.188,1245.48C620.285,1233.95 623.918,1222.73 629.059,1211.56C637.477,1193.26 650.629,1173.71 665.18,1152.02C686.254,1120.59 711.398,1083.08 734.191,1033.54C749.699,999.824 764.18,960.426 779.352,919.121C811.23,832.32 846.312,736.254 899.895,676.598C979.801,587.645 1098.89,581.047 1211.12,574.258L1199.57,586.531C1199.57,579.738 1205.07,574.234 1211.86,574.234C1218.66,574.234 1224.16,579.738 1224.16,586.531Z" style="fill-rule:nonzero;"/>
            </g>
            <g transform="matrix(0.902741,0,0,0.902741,148.187,102.59)">
                <path d="M1654.25,1336.45L1652.81,1347.7C1646.03,1370.37 1626.18,1388.5 1593.26,1402.09C1560.12,1415.67 1521.09,1421.18 1476.17,1418.61C1433.31,1415.02 1399.02,1404.52 1373.32,1387.12C1365.08,1381.49 1358.3,1375.36 1352.97,1368.72L1346.25,1358.49C1342.56,1351.45 1340.69,1344.1 1340.65,1336.45C1341.77,1312.96 1357.08,1293.41 1386.57,1277.81C1416.07,1262.21 1453.03,1254.12 1497.44,1253.53C1541.87,1254.12 1578.82,1262.21 1608.32,1277.81C1637.82,1293.41 1653.12,1312.96 1654.25,1336.45Z" style="fill-rule:nonzero;"/>
            </g>
            <g transform="matrix(0.902741,0,0,0.902741,148.187,102.59)">
                <path d="M1584.98,1295.02L1584.2,1297.46C1580.51,1302.39 1569.73,1306.34 1551.85,1309.29C1533.85,1312.25 1512.65,1313.44 1488.25,1312.89C1464.97,1312.11 1446.35,1309.82 1432.39,1306.04C1427.91,1304.81 1424.23,1303.48 1421.34,1302.04L1417.68,1299.81C1415.68,1298.28 1414.66,1296.68 1414.64,1295.02C1415.25,1289.91 1423.57,1285.66 1439.59,1282.27C1455.61,1278.88 1475.68,1277.11 1499.81,1276.98C1523.94,1277.11 1544.01,1278.88 1560.03,1282.27C1576.05,1285.66 1584.37,1289.91 1584.98,1295.02Z" style="fill:white;fill-rule:nonzero;"/>
            </g>
            <g transform="matrix(0.902741,0,0,0.902741,148.187,102.59)">
                <path d="M1820.74,1163.13L1820.51,1163.95C1819.41,1165.61 1816.22,1166.94 1810.92,1167.93C1805.58,1168.93 1799.29,1169.33 1792.06,1169.14C1785.16,1168.88 1779.64,1168.11 1775.5,1166.84C1774.17,1166.43 1773.08,1165.98 1772.22,1165.49L1771.14,1164.74C1770.54,1164.23 1770.24,1163.69 1770.24,1163.13C1770.42,1161.41 1772.88,1159.98 1777.63,1158.84C1782.38,1157.69 1788.34,1157.1 1795.49,1157.06C1802.64,1157.1 1808.59,1157.69 1813.34,1158.84C1818.09,1159.98 1820.56,1161.41 1820.74,1163.13Z" style="fill-rule:nonzero;"/>
            </g>
            <g transform="matrix(0.902741,0,0,0.902741,148.187,102.59)">
                <path d="M1834.98,1124.65C1834.98,1177.32 1800.69,1220.01 1758.39,1220.01C1716.09,1220.01 1681.81,1177.32 1681.81,1124.65C1681.81,1071.98 1716.09,1029.29 1758.39,1029.29C1800.69,1029.29 1834.98,1071.98 1834.98,1124.65Z" style="fill-rule:nonzero;"/>
            </g>
            <g transform="matrix(0.902741,0,0,0.902741,148.187,102.59)">
                <path d="M1769.6,1114.49C1768.64,1137.94 1753.92,1156.37 1736.73,1155.66C1719.53,1154.96 1706.37,1135.38 1707.33,1111.94C1708.29,1088.5 1723.01,1070.07 1740.21,1070.77C1757.4,1071.48 1770.56,1091.05 1769.6,1114.49Z" style="fill:white;fill-rule:nonzero;"/>
            </g>
            <g transform="matrix(0.902741,0,0,0.902741,148.187,102.59)">
                <path d="M1168.48,1128.33C1168.48,1075.66 1202.77,1032.96 1245.06,1032.96C1287.36,1032.96 1321.65,1075.66 1321.65,1128.33C1321.65,1180.99 1287.36,1223.69 1245.06,1223.69C1202.77,1223.69 1168.48,1180.99 1168.48,1128.33Z" style="fill-rule:nonzero;"/>
            </g>
            <g transform="matrix(0.902741,0,0,0.902741,148.187,102.59)">
                <path d="M1237.43,1115.76C1238.44,1090.99 1251.61,1071.41 1266.82,1072.04C1282.04,1072.66 1293.56,1093.25 1292.54,1118.02C1291.53,1142.79 1278.37,1162.37 1263.15,1161.75C1247.93,1161.12 1236.41,1140.54 1237.43,1115.76Z" style="fill:white;fill-rule:nonzero;"/>
            </g>
            <g transform="matrix(0.902741,0,0,0.902741,148.187,102.59)">
                <path d="M1490.84,1387.89L1491.32,1387.22C1496.78,1378.25 1503.93,1364.63 1512.79,1346.36C1516.21,1339.56 1517.32,1336.01 1516.11,1335.71C1513.93,1334.29 1509.85,1334.49 1503.84,1336.34C1501.43,1337.27 1500.06,1339.32 1499.72,1342.5C1498.64,1370.19 1499.14,1392.66 1501.23,1409.91C1502.99,1425.43 1505.88,1439.21 1509.89,1451.25C1516.38,1469.88 1524.92,1484.36 1535.51,1494.71C1540.16,1499.43 1544.39,1503.1 1548.2,1505.71C1562.61,1513.12 1571.23,1517.06 1574.08,1517.53C1603.16,1526.91 1632.18,1527.37 1661.16,1518.89C1685.77,1512.16 1707.87,1495.4 1727.45,1468.62C1731.08,1463.47 1734.94,1457.29 1739.05,1450.06L1757.12,1414.66C1738.87,1435.85 1722.08,1452.58 1706.75,1464.87C1696.78,1473.55 1683.59,1480.74 1667.18,1486.44C1636.12,1494.52 1606.73,1490.71 1579.02,1475.03C1566.76,1466.04 1560.44,1460.97 1560.07,1459.83C1552.97,1451.92 1547.71,1443.98 1544.31,1435.99C1535.02,1415.65 1527.41,1381.91 1521.49,1334.77C1521.82,1333.34 1519.22,1331.31 1513.69,1328.68C1505.38,1326.18 1500.66,1327.16 1499.54,1331.63C1490.36,1368.92 1487.46,1387.68 1490.84,1387.89Z" style="fill-rule:nonzero;"/>
            </g>
            <g transform="matrix(0.902741,0,0,0.902741,148.187,102.59)">
                <path d="M1525.53,1379.86L1525.39,1379.05C1519.68,1357.38 1513.93,1339.6 1508.16,1325.71C1504.43,1319.81 1499.69,1319.91 1493.96,1326C1490.52,1328.75 1488.19,1332.23 1486.98,1336.42C1484.92,1381.61 1482.5,1408.4 1479.73,1416.8C1476.76,1431.62 1472.46,1443.59 1466.83,1452.7C1462.5,1460.46 1454.09,1469.32 1441.6,1479.29C1429.59,1487.75 1415.89,1493.58 1400.49,1496.78C1374.47,1501.59 1352.22,1499.27 1333.73,1489.8C1312.53,1479.57 1288.35,1461.59 1261.21,1435.85L1282.92,1469.1C1287.26,1475.25 1291.99,1481.27 1297.12,1487.17C1307.25,1498.54 1318.71,1508.09 1331.5,1515.8C1357.51,1530.97 1388.29,1535.25 1423.86,1528.64C1444.89,1523.95 1462.91,1516 1477.93,1504.77C1491.25,1492.77 1500.86,1478.24 1506.76,1461.18C1515.2,1437.88 1517.27,1405.47 1512.96,1363.96C1511.31,1348.65 1509.67,1337.08 1508.06,1329.23C1507.41,1327.98 1504.51,1327.97 1499.36,1329.19C1496.34,1330.16 1494.27,1331.57 1493.17,1333.39C1492.71,1334.29 1492.76,1335.23 1493.32,1336.2C1503.25,1352.33 1509.77,1362.47 1512.88,1366.63C1518.85,1375.82 1523.07,1380.22 1525.53,1379.86Z" style="fill-rule:nonzero;"/>
            </g>
            <g transform="matrix(0.902741,0,0,0.902741,148.187,102.59)">
                <path d="M1406.01,1518.75L1406.01,1518.75L1406.02,1518.82C1407.35,1562.39 1409.51,1594.57 1435.73,1610.44C1449.59,1618.84 1471.63,1623.64 1495.13,1623.64C1518.86,1623.64 1541.32,1618.75 1555.43,1610.36C1581.67,1594.78 1583.82,1564.03 1585.23,1522.12C1585.49,1514.64 1591.75,1508.79 1599.23,1509.04C1606.72,1509.29 1612.57,1515.56 1612.32,1523.04C1611.06,1560.52 1610.54,1609.16 1569.27,1633.66C1549.46,1645.43 1521.61,1650.75 1495.13,1650.75C1468.93,1650.75 1441.37,1645.54 1421.69,1633.62C1380.52,1608.69 1380.12,1558.48 1378.93,1519.65L1378.92,1519.58C1378.69,1512.1 1384.57,1505.85 1392.06,1505.62C1399.53,1505.39 1405.78,1511.27 1406.01,1518.75Z" style="fill-rule:nonzero;"/>
            </g>
            <g transform="matrix(0.902741,0,0,0.902741,148.187,102.59)">
                <path d="M1070.77,1696.13C1070.77,1697.94 1070.41,1699.73 1069.7,1701.39C1038.72,1774.87 1009.17,1845.39 1020.27,1943.13C1031.53,2042.38 1084.57,2170.08 1138.9,2300.53C1140.69,2304.85 1140.14,2309.78 1137.44,2313.59C1100.17,2366.1 1067.68,2412.93 1068.14,2453.38C1068.58,2491.78 1100.3,2528.97 1147.19,2550.17C1176.8,2563.55 1211.53,2569.97 1248.52,2569.97C1268.98,2569.97 1290.04,2568 1311.18,2564.22C1370.76,2553.54 1430.63,2528.47 1492.23,2502.62L1483.92,2515L1486.98,2171.02L1496.32,2184.02C1425.27,2160.75 1351.61,2136.74 1295.16,2097.12C1238.44,2057.31 1199.78,2002.26 1162.61,1949.54C1158.29,1943.42 1159.75,1934.97 1165.87,1930.65C1171.98,1926.34 1180.44,1927.81 1184.75,1933.92C1222.36,1987.26 1258.49,2038.28 1310.73,2074.94C1363.23,2111.79 1432.68,2134.66 1504.75,2158.27C1510.36,2160.11 1514.14,2165.36 1514.08,2171.27L1511.02,2515.23C1510.98,2520.65 1507.71,2525.52 1502.72,2527.61C1441.73,2553.21 1379.02,2579.59 1315.96,2590.89C1293.36,2594.94 1270.7,2597.07 1248.52,2597.07C1208.54,2597.07 1169.84,2590.16 1136.03,2574.86C1084.35,2551.5 1041.65,2507.05 1041.04,2453.68C1040.45,2402.36 1080.29,2347.29 1115.34,2297.9L1113.88,2310.96C1060.15,2181.93 1005.13,2050.14 993.336,1946.19C981.367,1840.72 1013.76,1764.31 1044.73,1690.86L1043.66,1696.13C1043.66,1688.64 1049.73,1682.58 1057.21,1682.58C1064.7,1682.58 1070.77,1688.64 1070.77,1696.13Z" style="fill-rule:nonzero;"/>
            </g>
            <g transform="matrix(0.902741,0,0,0.902741,148.187,102.59)">
                <path d="M1512.89,2167.22L1495.68,2154.18C1561.83,2135.59 1625.35,2117.62 1679.23,2080.58C1733.28,2043.44 1778.35,1986.64 1824.99,1927.68C1829.63,1921.81 1838.16,1920.81 1844.02,1925.46C1849.89,1930.1 1850.89,1938.62 1846.25,1944.49C1800.23,2002.67 1752.64,2063.02 1694.59,2102.92C1636.38,2142.93 1568.37,2161.9 1503,2180.27C1498.92,2181.41 1494.54,2180.58 1491.16,2178.02C1487.77,2175.46 1485.79,2171.46 1485.79,2167.22C1485.79,2159.73 1491.86,2153.67 1499.34,2153.67C1506.82,2153.67 1512.89,2159.73 1512.89,2167.22Z" style="fill-rule:nonzero;"/>
            </g>
            <g transform="matrix(0.902741,0,0,0.902741,148.187,102.59)">
                <path d="M1514.71,2492.46L1508.32,2480.96C1561.43,2514.04 1612.49,2545.72 1680,2559.82C1705.56,2565.16 1733.6,2567.99 1761.34,2567.99C1807.35,2567.99 1851.05,2560.2 1881.02,2544.45C1927.84,2519.84 1943.42,2474.32 1937.44,2435.52C1931.4,2396.28 1903.3,2363.2 1871.43,2326.36C1868.09,2322.5 1867.2,2317.07 1869.15,2312.34C1918.12,2193.3 1966.06,2076.54 1980.12,1978.72C1994.07,1881.77 1974.74,1802.91 1954.68,1721.59C1952.89,1714.33 1957.33,1706.98 1964.59,1705.19C1971.86,1703.4 1979.2,1707.84 1981,1715.11C2001,1796.22 2021.73,1879.81 2006.95,1982.58C1992.3,2084.47 1942.74,2204.7 1894.21,2322.65L1891.93,2308.63C1922.47,2343.94 1956.78,2383.01 1964.23,2431.39C1971.75,2480.22 1951.9,2537.81 1893.63,2568.44C1858.22,2587.05 1809.58,2595.09 1761.34,2595.09C1731.83,2595.09 1701.93,2592.09 1674.46,2586.35C1601.63,2571.14 1546.79,2536.85 1494,2503.97C1490.02,2501.49 1487.61,2497.14 1487.61,2492.46C1487.61,2484.98 1493.68,2478.91 1501.16,2478.91C1508.64,2478.91 1514.71,2484.98 1514.71,2492.46Z" style="fill-rule:nonzero;"/>
            </g>
            <g transform="matrix(0.902741,0,0,0.902741,148.187,102.59)">
                <path d="M2021.39,1923L2016.39,1912.48C2051.77,1941.26 2090.31,1972.31 2110.19,2027.89C2129.61,2082.22 2130.91,2159.06 2121.18,2206.59C2110.94,2256.56 2088.16,2275.81 2067.28,2293.32L2062.6,2269.99C2112.68,2285.55 2169.68,2302.65 2198.77,2343.27C2228.2,2384.36 2227.59,2446.14 2204.43,2491.91C2180.8,2538.61 2133.78,2569.31 2080.91,2576.88C2071.34,2578.25 2061.63,2578.86 2051.85,2578.86C2007.96,2578.86 1961,2566.57 1916.25,2554.94C1909,2553.06 1904.66,2545.66 1906.54,2538.42C1908.42,2531.18 1915.82,2526.83 1923.06,2528.71C1968.68,2540.56 2012.09,2551.76 2051.85,2551.76C2060.52,2551.76 2068.93,2551.22 2077.07,2550.05C2122.26,2543.59 2161.07,2517.56 2180.25,2479.68C2199.89,2440.87 2199.07,2390.23 2176.74,2359.05C2154.08,2327.41 2107.78,2312.41 2054.56,2295.87C2049.82,2294.4 2046.27,2290.46 2045.29,2285.6C2044.32,2280.74 2046.07,2275.73 2049.87,2272.55C2068.99,2256.52 2086.21,2242.23 2094.62,2201.15C2103.54,2157.62 2102.15,2085.91 2084.67,2037.02C2067.64,1989.4 2035.04,1962.59 1999.29,1933.51C1996.13,1930.93 1994.29,1927.07 1994.29,1923C1994.29,1915.51 2000.36,1909.44 2007.84,1909.44C2015.33,1909.44 2021.39,1915.51 2021.39,1923Z" style="fill-rule:nonzero;"/>
            </g>
            <g transform="matrix(0.902741,0,0,0.902741,148.187,102.59)">
                <path d="M1014.11,1923.56L1014.11,1923.56C1014.11,1927.1 1012.72,1930.5 1010.23,1933.04C972.109,1971.97 936.414,2008.67 917.703,2053.46C898.996,2098.23 897.027,2152.03 905.918,2190.93C914.613,2228.98 933.691,2252.91 954.68,2279C957.473,2282.48 958.379,2287.1 957.105,2291.37C955.836,2295.64 952.543,2299.01 948.305,2300.39C903.102,2315.07 863.148,2328.47 837.195,2364.46C809.898,2402.31 799.973,2460.88 827.57,2494.96C856.598,2530.81 930.484,2547.06 985.242,2549.39C989.863,2549.59 994.305,2549.68 998.539,2549.68C1041.96,2549.68 1066.99,2539.96 1093.5,2529.66C1100.47,2526.95 1108.32,2530.41 1111.04,2537.38C1113.75,2544.36 1110.29,2552.21 1103.32,2554.92C1075.94,2565.56 1047.1,2576.78 998.539,2576.78C993.898,2576.78 989.09,2576.68 984.09,2576.47C929.527,2574.14 843.852,2558.13 806.508,2512.02C767.734,2464.13 784.617,2391.03 815.215,2348.61C847.152,2304.31 896.172,2288.82 939.938,2274.61L933.562,2295.99C912.598,2269.93 889.719,2241.7 879.496,2196.97C869.465,2153.09 871.613,2093.47 892.695,2043.01C913.77,1992.57 953.535,1952.2 990.871,1914.08L987.004,1923.56L987.004,1923.56C987.004,1916.07 993.07,1910 1000.56,1910C1008.03,1910 1014.11,1916.07 1014.11,1923.56Z" style="fill-rule:nonzero;"/>
            </g>
            <g transform="matrix(0.902741,0,0,0.902741,148.187,102.59)">
                <path d="M948.43,2271.86L948.434,2271.87L948.605,2272L948.602,2271.99C962.922,2282.82 975.281,2292.01 989.645,2296.93C1004.27,2301.93 1021.74,2302.79 1041.78,2303.66C1049.25,2303.99 1055.05,2310.31 1054.73,2317.79C1054.4,2325.27 1048.07,2331.07 1040.6,2330.74C1021.53,2329.91 999.895,2329.07 980.871,2322.57C961.727,2316.02 945.996,2304 932.25,2293.61L932.242,2293.6L932.07,2293.47C926.109,2288.96 924.93,2280.46 929.445,2274.49C933.961,2268.52 942.461,2267.35 948.43,2271.86Z" style="fill-rule:nonzero;"/>
            </g>
            <g transform="matrix(0.902741,0,0,0.902741,148.187,102.59)">
                <path d="M1133.2,2295C1167.84,2323.12 1199.32,2348.32 1234.36,2356.22C1243.56,2358.29 1253.22,2359.2 1263.34,2359.2C1291.48,2359.2 1321.75,2352.22 1353.96,2344.71C1361.25,2343.02 1368.54,2347.55 1370.23,2354.84C1371.93,2362.12 1367.4,2369.41 1360.11,2371.11C1328.62,2378.45 1295.18,2386.3 1263.34,2386.3C1251.61,2386.3 1239.89,2385.25 1228.4,2382.66C1185.98,2373.09 1149.46,2343.1 1116.12,2316.03C1110.31,2311.32 1109.42,2302.78 1114.14,2296.98C1118.86,2291.16 1127.39,2290.28 1133.2,2295Z" style="fill-rule:nonzero;"/>
            </g>
            <g transform="matrix(0.902741,0,0,0.902741,148.187,102.59)">
                <path d="M1897.67,2315.41C1897.67,2319.02 1896.23,2322.47 1893.67,2325.02L1893.48,2325.2L1893.48,2325.2C1865.2,2353.33 1833.62,2385.17 1791.77,2395.46C1780.18,2398.3 1768.12,2399.44 1755.89,2399.44C1723.81,2399.44 1688.66,2391.53 1655.46,2384.12C1648.15,2382.48 1643.56,2375.24 1645.18,2367.94C1646.81,2360.63 1654.06,2356.03 1661.36,2357.66C1695.35,2365.25 1727.39,2372.34 1755.89,2372.34C1766.48,2372.34 1776.3,2371.35 1785.3,2369.14C1818.52,2360.97 1844.82,2335.38 1874.37,2305.98L1874.37,2305.99L1874.56,2305.8L1870.57,2315.41C1870.57,2307.92 1876.63,2301.86 1884.12,2301.86C1891.6,2301.86 1897.67,2307.92 1897.67,2315.41Z" style="fill-rule:nonzero;"/>
            </g>
            <g transform="matrix(0.902741,0,0,0.902741,148.187,102.59)">
                <path d="M2072.98,2288.74L2072.82,2288.89C2060.45,2301.35 2045.78,2316.34 2028.95,2324.04C2012.79,2331.43 1995.76,2331.7 1981.57,2331.7C1980.44,2331.7 1979.4,2331.7 1978.29,2331.69L1978.17,2331.69C1970.69,2331.68 1964.64,2325.59 1964.65,2318.11C1964.67,2310.62 1970.75,2304.57 1978.24,2304.59L1978.35,2304.59C1979.46,2304.59 1980.48,2304.6 1981.57,2304.6C1996.04,2304.6 2007.52,2304.05 2017.68,2299.39C2029.12,2294.16 2040.21,2283.28 2053.59,2269.8L2053.75,2269.64C2059.02,2264.33 2067.6,2264.3 2072.91,2269.57C2078.22,2274.85 2078.25,2283.43 2072.98,2288.74Z" style="fill-rule:nonzero;"/>
            </g>
            <g transform="matrix(0.902741,0,0,0.902741,148.187,102.59)">
                <path d="M1745.23,2579.52L1718.95,2574.87L1718.95,2574.86L1718.89,2575.03C1727.09,2551.61 1734.19,2530.96 1734.46,2512.13C1734.73,2493.61 1728.38,2475.92 1720.84,2455.44C1718.25,2448.42 1721.85,2440.63 1728.88,2438.04C1735.89,2435.46 1743.69,2439.05 1746.27,2446.08C1753.5,2465.71 1761.91,2488.13 1761.56,2512.53C1761.21,2536.62 1752.28,2561.69 1744.47,2583.99L1744.41,2584.16L1744.4,2584.17C1742.28,2590.23 1735.92,2593.98 1729.4,2592.88C1722.89,2591.77 1718.12,2586.12 1718.12,2579.52C1718.12,2572.03 1724.19,2565.97 1731.68,2565.97C1739.16,2565.97 1745.23,2572.03 1745.23,2579.52Z" style="fill-rule:nonzero;"/>
            </g>
            <g transform="matrix(0.902741,0,0,0.902741,148.187,102.59)">
                <path d="M1888.41,2560.4L1861.61,2557.58C1867.42,2530.22 1872.52,2505.64 1871.46,2487.89C1870.48,2471.52 1864.14,2460.69 1856.09,2447.33C1852.23,2440.92 1854.31,2432.59 1860.72,2428.73C1867.13,2424.88 1875.46,2426.94 1879.32,2433.36C1887.36,2446.72 1897.11,2462.62 1898.51,2486.27C1899.84,2508.53 1893.62,2537.27 1888.12,2563.21C1886.68,2570 1880.35,2574.6 1873.45,2573.88C1866.55,2573.15 1861.31,2567.33 1861.31,2560.4C1861.31,2552.91 1867.38,2546.85 1874.86,2546.85C1882.35,2546.85 1888.41,2552.91 1888.41,2560.4Z" style="fill-rule:nonzero;"/>
            </g>
            <g transform="matrix(0.902741,0,0,0.902741,148.187,102.59)">
                <path d="M2035.39,2556.4L2035.39,2556.41L2010,2549.82L2010,2549.82L2009.85,2550.09C2018.7,2533.28 2025.75,2519.5 2027.32,2507.49C2028.79,2496.14 2025.4,2485.33 2020.63,2471.1C2018.25,2464 2022.08,2456.32 2029.18,2453.95C2036.27,2451.57 2043.95,2455.4 2046.33,2462.49C2050.77,2475.77 2056.6,2492.47 2054.19,2510.98C2051.87,2528.84 2041.95,2547.29 2033.83,2562.72L2033.69,2562.98L2033.68,2562.98C2030.93,2568.23 2024.64,2571.05 2018.59,2569.56C2012.54,2568.06 2008.29,2562.64 2008.29,2556.41L2008.29,2556.4C2008.29,2548.92 2014.36,2542.85 2021.84,2542.85C2029.32,2542.85 2035.39,2548.92 2035.39,2556.4Z" style="fill-rule:nonzero;"/>
            </g>
            <g transform="matrix(0.902741,0,0,0.902741,148.187,102.59)">
                <path d="M2141.94,2543.19L2115.58,2538.76L2115.67,2538.5L2115.67,2538.49C2122.23,2519.56 2127.72,2503.27 2128.45,2490.72C2129.12,2479.2 2125.69,2470.36 2121,2458.8C2118.19,2451.86 2121.53,2443.96 2128.47,2441.14C2135.41,2438.34 2143.31,2441.68 2146.12,2448.61C2150.71,2459.93 2156.57,2473.97 2155.51,2492.28C2154.52,2509.41 2147.4,2529.69 2141.28,2547.36L2141.2,2547.62C2139.03,2553.87 2132.66,2557.65 2126.14,2556.55C2119.62,2555.45 2114.84,2549.8 2114.84,2543.19C2114.84,2535.7 2120.9,2529.64 2128.39,2529.64C2135.87,2529.64 2141.94,2535.7 2141.94,2543.19Z" style="fill-rule:nonzero;"/>
            </g>
            <g transform="matrix(0.902741,0,0,0.902741,148.187,102.59)">
                <path d="M1300.55,2578.45C1300.55,2584.72 1296.24,2590.17 1290.14,2591.62C1284.04,2593.08 1277.74,2590.16 1274.91,2584.56L1274.91,2584.57L1274.81,2584.38L1274.81,2584.38C1264.57,2564.15 1252.81,2541.18 1249.46,2520.88C1245.93,2499.4 1251.81,2481.75 1256.47,2467.26C1258.76,2460.14 1266.4,2456.22 1273.52,2458.52C1280.64,2460.81 1284.56,2468.44 1282.27,2475.57C1277.46,2490.5 1273.87,2502.27 1276.21,2516.47C1278.72,2531.75 1288.07,2550.56 1298.99,2572.14L1298.99,2572.14L1299.09,2572.32L1273.44,2578.45C1273.44,2570.96 1279.51,2564.89 1287,2564.89C1294.48,2564.89 1300.55,2570.96 1300.55,2578.45Z" style="fill-rule:nonzero;"/>
            </g>
            <g transform="matrix(0.902741,0,0,0.902741,148.187,102.59)">
                <path d="M1151.93,2557.81C1151.93,2564.47 1147.1,2570.14 1140.53,2571.2C1133.96,2572.25 1127.59,2568.37 1125.51,2562.05L1125.44,2561.85C1118.3,2540.12 1110.15,2515.69 1109.53,2494.68C1108.87,2472.69 1116.38,2455.23 1122.55,2440.52C1125.45,2433.62 1133.39,2430.38 1140.29,2433.28C1147.19,2436.18 1150.44,2444.12 1147.54,2451.02C1141.18,2466.14 1136.16,2478.52 1136.62,2493.87C1137.1,2510.1 1143.62,2530.38 1151.19,2553.38L1151.26,2553.58L1124.84,2557.81C1124.84,2550.33 1130.9,2544.26 1138.38,2544.26C1145.87,2544.26 1151.93,2550.33 1151.93,2557.81Z" style="fill-rule:nonzero;"/>
            </g>
            <g transform="matrix(0.902741,0,0,0.902741,148.187,102.59)">
                <path d="M985.145,2551.58C985.145,2558.45 980.004,2564.23 973.184,2565.03C966.363,2565.84 960.016,2561.42 958.414,2554.73C954.195,2537.12 949.328,2517.19 949.801,2498.73C950.281,2479.91 956.262,2463.35 961.332,2449.04C963.832,2441.98 971.578,2438.29 978.629,2440.79C985.684,2443.29 989.375,2451.04 986.875,2458.09C981.609,2472.96 977.246,2485.57 976.895,2499.42C976.527,2513.63 980.328,2529.87 984.773,2548.42L958.043,2551.58C958.043,2544.09 964.109,2538.03 971.594,2538.03C979.078,2538.03 985.145,2544.09 985.145,2551.58Z" style="fill-rule:nonzero;"/>
            </g>
            <g transform="matrix(0.902741,0,0,0.902741,148.187,102.59)">
                <path d="M890.074,2532.89C890.074,2539.55 885.223,2545.23 878.637,2546.27C872.051,2547.31 865.688,2543.4 863.633,2537.06C857.973,2519.57 851.145,2498.99 851.359,2481.08C851.586,2462.24 859.469,2447.34 865.57,2435.48C868.992,2428.82 877.16,2426.2 883.816,2429.62C890.473,2433.05 893.094,2441.22 889.672,2447.88C883.242,2460.38 878.598,2469.85 878.457,2481.41C878.309,2493.9 883.281,2509.76 889.418,2528.71L862.973,2532.89C862.973,2525.4 869.043,2519.34 876.523,2519.34C884.008,2519.34 890.074,2525.4 890.074,2532.89Z" style="fill-rule:nonzero;"/>
            </g>
            <g transform="matrix(0.902741,0,0,0.902741,148.187,102.59)">
                <path d="M2126.14,2035.57L2104.36,2024.8C2153.47,1987.29 2199.93,1951.61 2228.34,1906.66C2256.63,1861.89 2267.61,1806.83 2276.15,1752.94C2284.83,1698.22 2289.73,1651.84 2279.42,1622.07C2269.87,1594.52 2245.98,1579.7 2218.62,1575.26C2213.78,1574.48 2209,1574.05 2204.38,1574.05C2183.9,1574.05 2165.88,1582.05 2156.69,1608.64C2150.97,1625.18 2148.6,1648.66 2145.85,1676.89C2142.7,1709.12 2139.13,1746.44 2128.02,1779.44C2107.34,1840.84 2061.21,1885.6 2018.12,1927.74C2012.77,1932.97 2004.19,1932.88 1998.96,1927.52C1993.73,1922.17 1993.82,1913.59 1999.17,1908.36C2043.15,1865.35 2084.08,1824.98 2102.33,1770.79C2112.28,1741.26 2115.66,1707.14 2118.87,1674.26C2121.5,1647.26 2124.07,1620.06 2131.08,1599.79C2144.69,1560.41 2174.45,1546.95 2204.38,1546.95C2210.65,1546.95 2216.89,1547.52 2222.96,1548.51C2257.02,1554.04 2291.29,1573.56 2305.02,1613.19C2317.99,1650.61 2311.31,1704.26 2302.92,1757.18C2294.4,1810.94 2282.84,1871.14 2251.24,1921.14C2219.75,1970.97 2168.97,2009.56 2120.81,2046.34C2116.72,2049.46 2111.2,2050 2106.58,2047.71C2101.96,2045.43 2099.03,2040.72 2099.03,2035.57C2099.03,2028.08 2105.11,2022.02 2112.59,2022.02C2120.07,2022.02 2126.14,2028.08 2126.14,2035.57Z" style="fill-rule:nonzero;"/>
            </g>
            <g transform="matrix(0.902741,0,0,0.902741,148.187,102.59)">
                <path d="M2125.07,1783.58L2125.07,1783.59L2125.24,1783.73L2125.23,1783.73C2146.82,1802.66 2166.75,1820.02 2188.18,1830.66C2209.52,1841.25 2232.97,1845.49 2258.69,1850.04C2266.06,1851.34 2270.98,1858.37 2269.68,1865.74C2268.38,1873.11 2261.34,1878.03 2253.97,1876.72C2228.89,1872.29 2201.53,1867.55 2176.13,1854.93C2150.95,1842.43 2128.33,1822.5 2107.36,1804.1L2107.36,1804.1L2107.19,1803.95C2101.57,1799.02 2101.01,1790.46 2105.95,1784.83C2110.88,1779.21 2119.44,1778.65 2125.07,1783.58Z" style="fill-rule:nonzero;"/>
            </g>
            <g transform="matrix(0.902741,0,0,0.902741,148.187,102.59)">
                <path d="M2111.18,1292.14C2065.7,1276.01 2022.57,1260.84 1972.94,1260.84C1964.54,1260.84 1955.93,1261.29 1947.09,1262.23C1926.96,1264.4 1905.48,1269.23 1882.66,1274.38C1859.39,1279.64 1834.81,1285.2 1810.62,1287.81C1801.67,1288.77 1792.7,1289.34 1783.76,1289.34C1768.79,1289.34 1753.84,1287.74 1739.27,1283.65C1697.38,1271.89 1661.34,1240.06 1629.91,1212.59C1609.11,1194.41 1590.33,1178.07 1571.77,1167.41C1551.51,1155.78 1531.39,1150.94 1512.15,1150.94C1487.2,1150.94 1463.09,1159.09 1441.73,1172.2C1425.07,1182.43 1410.19,1195.57 1393.75,1210.15C1376.48,1225.47 1357.67,1242.19 1334.78,1256.24C1329.95,1259.2 1324.93,1262.06 1319.69,1264.76C1276.27,1287.18 1219.26,1298.75 1169.44,1298.75C1158.27,1298.75 1147.37,1298.17 1136.98,1296.98C1105.77,1293.39 1079.97,1284.34 1057.59,1276.51C1038.77,1269.94 1023.02,1264.49 1007.25,1262.49C1002.38,1261.88 997.438,1261.59 992.422,1261.59C961.625,1261.59 929.426,1272.38 894.508,1284.25C887.422,1286.66 879.727,1282.86 877.316,1275.78C874.91,1268.69 878.703,1260.99 885.789,1258.59C919.688,1247.07 956.309,1234.48 992.422,1234.48C998.48,1234.48 1004.56,1234.84 1010.65,1235.61C1029.77,1238.03 1048.29,1244.56 1066.53,1250.93C1089.04,1258.8 1112.22,1266.85 1140.07,1270.06C1149.33,1271.12 1159.19,1271.65 1169.44,1271.65C1215.79,1271.65 1268.37,1260.76 1307.25,1240.68C1311.86,1238.3 1316.31,1235.78 1320.6,1233.14C1341.17,1220.52 1358.29,1205.38 1375.77,1189.88C1391.88,1175.59 1408.52,1160.79 1427.55,1149.11C1452.29,1133.92 1481.25,1123.84 1512.15,1123.84C1536.14,1123.84 1560.91,1129.93 1585.26,1143.91C1606.61,1156.17 1627.51,1174.5 1647.75,1192.19C1680.39,1220.72 1711.73,1247.77 1746.59,1257.56C1758.29,1260.84 1770.7,1262.24 1783.76,1262.24C1791.56,1262.24 1799.55,1261.74 1807.72,1260.86C1830.09,1258.45 1853.13,1253.27 1876.69,1247.95C1899.16,1242.88 1922.22,1237.66 1944.19,1235.29C1954.01,1234.23 1963.59,1233.74 1972.94,1233.74C2027.91,1233.74 2075.25,1250.65 2120.23,1266.59C2127.29,1269.09 2130.98,1276.84 2128.48,1283.89C2125.98,1290.94 2118.23,1294.64 2111.18,1292.14Z" style="fill-rule:nonzero;"/>
            </g>
            <g transform="matrix(0.902741,0,0,0.902741,272.577,92.159)">
                <ellipse cx="1363.76" cy="1960.91" rx="81.351" ry="81.373" style="fill:rgb(225,83,83);"/>
            </g>
            <g transform="matrix(0.461548,0,0,0.461548,353.259,1537.55)">
                <path d="M2491.52,652.629L2494.61,651.254C2504.69,646.637 2513.08,643.703 2519.79,642.445C2526.95,640.961 2533.83,641.402 2540.43,643.762C2543.31,644.559 2547.49,647.117 2552.99,651.441C2556.03,654.105 2558.83,657.266 2561.39,660.914C2564.29,665.23 2566.34,669.547 2567.56,673.855C2568.34,676.234 2568.84,679.367 2569.04,683.262C2569.83,693.512 2563.97,705.953 2551.45,720.582C2537.91,734.453 2527.77,743.91 2521.05,748.965C2512.4,756.012 2503.32,762.645 2493.81,768.863C2484.09,762.684 2475.14,756.348 2466.96,749.848C2460.39,745.066 2451.35,736.695 2439.86,724.734C2432.14,715.516 2426.95,708.434 2424.28,703.484C2420.94,696.773 2418.78,691.922 2417.82,688.926C2416.74,684.941 2416.14,681.344 2416.02,678.133C2415.99,669.926 2418.45,662.68 2423.42,656.395C2430.11,648.34 2437.97,642.914 2447,640.121C2454.82,638.168 2461.22,638.055 2466.22,639.777C2475,642.574 2483.43,646.855 2491.52,652.629Z" style="fill:rgb(255,244,232);fill-rule:nonzero;"/>
            </g>
        </g>
    </g>
</svg>
